<?xml version="1.0" standalone="no"?>
<!DOCTYPE svg PUBLIC "-//W3C//DTD SVG 20010904//EN"
 "http://www.w3.org/TR/2001/REC-SVG-20010904/DTD/svg10.dtd">
<svg version="1.0" xmlns="http://www.w3.org/2000/svg"
 width="799.000000pt" height="350.000000pt" viewBox="0 0 799.000000 350.000000"
 preserveAspectRatio="xMidYMid meet">

<g transform="translate(0.000000,350.000000) scale(0.100000,-0.100000)"
fill="#000000" stroke="none">
<path d="M4255 2475 c-302 -31 -650 -104 -955 -199 -164 -51 -258 -69 -443
-87 -161 -15 -519 -7 -682 15 -271 38 -583 115 -845 210 -67 24 -118 40 -114
36 19 -18 285 -152 397 -200 308 -131 617 -211 889 -228 l113 -7 -215 -110
c-206 -106 -488 -265 -540 -305 -14 -11 24 1 85 26 410 171 959 362 1315 459
334 91 682 156 995 186 167 16 533 16 700 1 663 -62 1302 -289 2264 -802 63
-34 108 -54 101 -45 -23 28 -221 189 -340 277 -576 425 -1166 669 -1850 764
-160 22 -697 28 -875 9z"/>
<path d="M509 1797 c22 -27 183 -161 291 -241 207 -154 488 -312 731 -412
1097 -450 2468 -354 3924 276 134 58 557 262 552 266 -2 2 -135 -42 -297 -97
-2110 -718 -3332 -737 -4675 -74 -147 73 -420 223 -511 281 -27 17 -28 17 -15
1z"/>
</g>
</svg>
