<?xml version="1.0" standalone="no"?>
<!DOCTYPE svg PUBLIC "-//W3C//DTD SVG 20010904//EN"
 "http://www.w3.org/TR/2001/REC-SVG-20010904/DTD/svg10.dtd">
<svg version="1.0" xmlns="http://www.w3.org/2000/svg"
 width="771.000000pt" height="287.000000pt" viewBox="0 0 771.000000 287.000000"
 preserveAspectRatio="xMidYMid meet">

<g transform="translate(0.000000,287.000000) scale(0.100000,-0.100000)"
fill="#000000" stroke="none">
<path d="M0 1435 l0 -1435 3855 0 3855 0 0 1435 0 1435 -3855 0 -3855 0 0
-1435z m5040 671 c684 -95 1274 -339 1850 -764 119 -88 317 -249 340 -277 7
-9 -38 11 -101 45 -199 106 -565 288 -725 361 -913 413 -1641 532 -2504 408
-205 -29 -502 -92 -730 -154 -356 -97 -905 -288 -1315 -459 -61 -25 -99 -37
-85 -26 52 40 334 199 540 305 l215 110 -113 7 c-272 17 -581 97 -889 228
-112 48 -378 182 -397 200 -4 4 47 -12 114 -36 262 -95 574 -172 845 -210 163
-22 521 -30 682 -15 185 18 279 36 443 87 305 95 653 168 955 199 178 19 715
13 875 -9z m-4421 -778 c1474 -841 2746 -867 5001 -99 162 55 295 99 297 97 5
-4 -418 -208 -552 -266 -1164 -503 -2274 -667 -3242 -479 -600 117 -1133 371
-1599 761 -49 42 -97 85 -105 95 -13 16 -12 16 15 -1 17 -10 100 -59 185 -108z"/>
</g>
</svg>
