<?xml version="1.0" standalone="no"?>
<!DOCTYPE svg PUBLIC "-//W3C//DTD SVG 20010904//EN"
 "http://www.w3.org/TR/2001/REC-SVG-20010904/DTD/svg10.dtd">
<svg version="1.0" xmlns="http://www.w3.org/2000/svg"
 width="818.000000pt" height="265.000000pt" viewBox="0 0 818.000000 265.000000"
 preserveAspectRatio="xMidYMid meet">

<g transform="translate(0.000000,265.000000) scale(0.100000,-0.100000)"
fill="#000000" stroke="none">
<path d="M0 1325 l0 -1325 4090 0 4090 0 0 1325 0 1325 -4090 0 -4090 0 0
-1325z m2090 439 c84 -21 228 -89 307 -145 132 -94 274 -240 373 -384 31 -46
28 -44 -79 46 -343 287 -557 389 -815 389 -179 -1 -330 -42 -546 -150 -110
-55 -254 -138 -350 -203 l-45 -30 40 42 c22 24 79 76 127 117 l88 73 -38 6
c-124 20 -272 94 -377 189 l-50 45 77 -40 c245 -127 434 -138 648 -40 123 57
186 78 283 97 90 17 267 11 357 -12z m1130 -133 l0 -149 53 20 c75 29 198 35
272 13 87 -25 138 -64 172 -132 26 -53 28 -67 28 -173 0 -106 -2 -119 -29
-173 -28 -58 -80 -107 -136 -129 -94 -37 -233 -30 -323 17 -27 14 -51 25 -53
25 -2 0 -4 -11 -4 -25 0 -24 -2 -25 -70 -25 l-70 0 0 440 0 440 80 0 80 0 0
-149z m840 -224 c0 -295 3 -377 13 -391 11 -14 26 -18 65 -18 l52 2 0 -50 c0
-46 -2 -50 -27 -57 -58 -16 -157 -8 -194 15 -64 39 -64 36 -67 475 l-3 397 80
0 81 0 0 -373z m1960 298 l0 -55 -85 0 -85 0 0 55 0 55 85 0 85 0 0 -55z m930
0 l0 -55 -85 0 -85 0 0 55 0 55 85 0 85 0 0 -55z m-2152 -205 c68 -29 107 -75
121 -140 6 -28 11 -143 11 -255 l0 -205 -70 0 c-63 0 -70 2 -70 19 0 31 -12
32 -67 5 -91 -45 -236 -53 -323 -17 -123 50 -159 194 -72 286 59 63 91 71 280
75 191 4 182 0 161 74 -13 49 -53 70 -144 76 -61 4 -175 -8 -242 -25 -22 -5
-23 -2 -23 45 0 28 5 54 10 57 31 19 155 34 260 31 93 -2 125 -8 168 -26z
m825 7 c36 -16 37 -17 37 -68 0 -45 -2 -50 -17 -44 -49 18 -125 27 -195 22
-132 -9 -200 -64 -213 -172 -8 -64 8 -144 37 -180 57 -73 193 -92 361 -50 27
7 27 7 27 -44 0 -62 -5 -65 -138 -82 -207 -26 -361 38 -423 176 -32 71 -32
209 0 280 38 86 105 140 211 170 71 19 258 15 313 -8z m987 -30 l0 -53 -68
-16 c-37 -9 -94 -26 -125 -38 l-57 -21 0 -225 0 -224 -80 0 -80 0 0 310 0 311
73 -3 72 -3 3 -32 c2 -18 5 -33 6 -33 2 0 25 10 52 22 54 24 159 56 187 57 14
1 17 -8 17 -52z m930 40 l55 -12 3 -59 3 -59 -28 7 c-15 4 -76 10 -135 13
-146 8 -190 -12 -167 -74 6 -18 33 -30 126 -59 65 -20 134 -45 153 -54 54 -28
91 -72 97 -118 19 -145 -71 -214 -282 -215 -60 -1 -140 5 -177 12 l-68 13 0
59 c0 33 3 59 8 59 4 0 39 -7 77 -15 83 -18 196 -18 245 -2 27 9 36 18 38 40
5 44 -22 65 -132 99 -194 59 -246 101 -246 194 0 94 44 146 144 170 64 15 213
16 286 1z m-1520 -307 l0 -310 -80 0 -80 0 0 255 0 255 -50 0 c-55 0 -58 6
-44 79 l7 31 123 0 124 0 0 -310z m930 0 l0 -310 -80 0 -80 0 0 255 0 255 -51
0 -52 0 7 38 c3 20 6 45 6 55 0 15 13 17 125 17 l125 0 0 -310z m-6369 95
c206 -187 430 -299 649 -325 266 -30 608 72 1022 306 43 24 80 44 84 44 4 0
-31 -30 -77 -67 -330 -261 -679 -397 -978 -380 -178 10 -357 75 -497 181 -71
53 -223 210 -274 282 -38 55 -27 49 71 -41z"/>
<path d="M3286 1404 c-67 -24 -66 -21 -66 -195 l0 -158 48 -28 c41 -24 57 -28
127 -28 135 0 184 49 193 191 8 126 -28 201 -109 224 -48 14 -147 11 -193 -6z"/>
<path d="M4475 1158 c-11 -6 -26 -18 -32 -26 -14 -17 -17 -69 -7 -97 11 -28
60 -45 132 -45 80 0 146 20 185 56 22 21 27 33 27 74 l0 50 -142 0 c-84 0
-151 -5 -163 -12z"/>
</g>
</svg>
