<?xml version="1.0" standalone="no"?>
<!DOCTYPE svg PUBLIC "-//W3C//DTD SVG 20010904//EN"
 "http://www.w3.org/TR/2001/REC-SVG-20010904/DTD/svg10.dtd">
<svg version="1.0" xmlns="http://www.w3.org/2000/svg"
 width="808.000000pt" height="199.000000pt" viewBox="0 0 808.000000 199.000000"
 preserveAspectRatio="xMidYMid meet">

<g transform="translate(0.000000,199.000000) scale(0.100000,-0.100000)"
fill="#000000" stroke="none">
<path d="M1853 1356 c-97 -19 -160 -40 -283 -97 -214 -98 -403 -87 -648 40
l-77 40 50 -45 c105 -95 253 -169 377 -189 l38 -6 -88 -73 c-48 -41 -105 -93
-127 -117 l-40 -42 45 30 c96 65 240 148 350 203 216 108 367 149 546 150 258
0 472 -102 815 -389 107 -90 110 -92 79 -46 -99 144 -241 290 -373 384 -79 56
-223 124 -307 145 -90 23 -267 29 -357 12z"/>
<path d="M3180 920 l0 -440 70 0 c68 0 70 1 70 25 0 14 2 25 4 25 2 0 26 -11
53 -25 90 -47 229 -54 323 -17 56 22 108 71 136 129 27 54 29 67 29 173 0 106
-2 120 -28 173 -34 68 -85 107 -172 132 -74 22 -197 16 -272 -13 l-53 -20 0
149 0 149 -80 0 -80 0 0 -440z m419 70 c81 -23 117 -98 109 -224 -9 -142 -58
-191 -193 -191 -70 0 -86 4 -127 28 l-48 28 0 158 c0 121 3 161 14 170 43 36
172 52 245 31z"/>
<path d="M4022 963 c3 -439 3 -436 67 -475 37 -23 136 -31 194 -15 25 7 27 11
27 57 l0 50 -52 -2 c-39 0 -54 4 -65 18 -10 14 -13 96 -13 391 l0 373 -81 0
-80 0 3 -397z"/>
<path d="M5970 1285 l0 -55 85 0 85 0 0 55 0 55 -85 0 -85 0 0 -55z"/>
<path d="M6900 1285 l0 -55 85 0 85 0 0 55 0 55 -85 0 -85 0 0 -55z"/>
<path d="M4568 1095 c-37 -7 -72 -17 -78 -20 -5 -3 -10 -29 -10 -57 0 -47 1
-50 23 -45 67 17 181 29 242 25 91 -6 131 -27 144 -76 21 -74 30 -70 -161 -74
-189 -4 -221 -12 -280 -75 -87 -92 -51 -236 72 -286 87 -36 232 -28 323 17 55
27 67 26 67 -5 0 -17 7 -19 70 -19 l70 0 0 205 c0 112 -5 227 -11 255 -14 65
-53 111 -121 140 -67 29 -247 37 -350 15z m332 -395 c0 -41 -5 -53 -27 -74
-75 -70 -291 -77 -317 -11 -10 28 -7 80 7 97 25 32 53 37 195 38 l142 0 0 -50z"/>
<path d="M5430 1095 c-106 -30 -173 -84 -211 -170 -32 -71 -32 -209 0 -280 62
-138 216 -202 423 -176 133 17 138 20 138 82 0 51 0 51 -27 44 -168 -42 -304
-23 -361 50 -29 36 -45 116 -37 180 13 108 81 163 213 172 70 5 146 -4 195
-22 15 -6 17 -1 17 44 0 51 -1 52 -37 68 -55 23 -242 27 -313 8z"/>
<path d="M6635 1091 c-33 -9 -82 -27 -109 -39 -27 -12 -50 -22 -52 -22 -1 0
-4 15 -6 33 l-3 32 -72 3 -73 3 0 -311 0 -310 80 0 80 0 0 224 0 225 57 21
c31 12 88 29 125 38 l68 16 0 53 c0 61 -1 62 -95 34z"/>
<path d="M7374 1096 c-100 -24 -144 -76 -144 -170 0 -93 52 -135 246 -194 110
-34 137 -55 132 -99 -2 -22 -11 -31 -38 -40 -49 -16 -162 -16 -245 2 -38 8
-73 15 -77 15 -5 0 -8 -26 -8 -59 l0 -59 68 -13 c37 -7 117 -13 177 -12 211 1
301 70 282 215 -6 46 -43 90 -97 118 -19 9 -88 34 -153 54 -93 29 -120 41
-126 59 -23 62 21 82 167 74 59 -3 120 -9 135 -13 l28 -7 -3 59 -3 59 -55 12
c-73 15 -222 14 -286 -1z"/>
<path d="M5886 1069 c-14 -73 -11 -79 44 -79 l50 0 0 -255 0 -255 80 0 80 0 0
310 0 310 -124 0 -123 0 -7 -31z"/>
<path d="M6820 1083 c0 -10 -3 -35 -6 -55 l-7 -38 52 0 51 0 0 -255 0 -255 80
0 80 0 0 310 0 310 -125 0 c-112 0 -125 -2 -125 -17z"/>
<path d="M630 926 c51 -72 203 -229 274 -282 140 -106 319 -171 497 -181 299
-17 648 119 978 380 46 37 81 67 77 67 -4 0 -41 -20 -84 -44 -414 -234 -756
-336 -1022 -306 -219 26 -443 138 -649 325 -98 90 -109 96 -71 41z"/>
</g>
</svg>
